<svg xmlns="http://www.w3.org/2000/svg" viewBox="0 0 326.86 108.21"><defs><style>.cls-1{fill:#6b626c;}</style></defs><title>Asset 12</title><g id="Layer_2" data-name="Layer 2"><g id="Camada_1" data-name="Camada 1"><path class="cls-1" d="M89.35,31.42v1.72H74.27V44.72H86.82V46.4H74.27V58.34H89.35v1.72H72.19V31.42Z"/><path class="cls-1" d="M101.82,31.49a1,1,0,0,1,.34.31l18.54,24.82q-.06-.61-.06-1.17v-24h1.82V60.06h-1a.87.87,0,0,1-.75-.4L102.1,34.8q.06.61.06,1.15V60.06h-1.8V31.42h1A1.14,1.14,0,0,1,101.82,31.49Z"/><path class="cls-1" d="M147.53,58.71a21.84,21.84,0,0,0,2.69-.15,14.47,14.47,0,0,0,2.26-.46,14.09,14.09,0,0,0,2-.74q.94-.43,1.89-1V48.67h-5.51a.53.53,0,0,1-.37-.14.43.43,0,0,1-.15-.32V47.07h7.91V57.25A18.64,18.64,0,0,1,156,58.58a14.77,14.77,0,0,1-2.47,1,19,19,0,0,1-2.83.61,24,24,0,0,1-3.32.21,14.88,14.88,0,0,1-5.66-1,12.56,12.56,0,0,1-4.39-3,13.32,13.32,0,0,1-2.84-4.63,18.45,18.45,0,0,1,0-12.05,13.1,13.1,0,0,1,2.87-4.62,12.66,12.66,0,0,1,4.52-3,16.23,16.23,0,0,1,6-1,19.09,19.09,0,0,1,3,.22,14,14,0,0,1,2.58.66,12.12,12.12,0,0,1,2.23,1.07,15,15,0,0,1,2,1.47l-.55.89a.56.56,0,0,1-.51.3.75.75,0,0,1-.34-.08,4.24,4.24,0,0,1-.88-.57,9.47,9.47,0,0,0-1.56-.93,13,13,0,0,0-2.46-.87,14.43,14.43,0,0,0-3.58-.38,13.58,13.58,0,0,0-5,.89,10.7,10.7,0,0,0-3.84,2.55,11.31,11.31,0,0,0-2.45,4,15.75,15.75,0,0,0-.86,5.36,16,16,0,0,0,.87,5.44,11.65,11.65,0,0,0,2.44,4.08,10.52,10.52,0,0,0,3.77,2.56A12.78,12.78,0,0,0,147.53,58.71Z"/><path class="cls-1" d="M172.44,47.11v13h-2.06V31.42h7.31q5,0,7.41,1.91A6.69,6.69,0,0,1,187.54,39a7.7,7.7,0,0,1-.57,3,7,7,0,0,1-1.63,2.38A8.7,8.7,0,0,1,182.79,46a11.38,11.38,0,0,1-3.38.86,3.28,3.28,0,0,1,.87.81l9.86,12.39h-1.8a1.18,1.18,0,0,1-.56-.12,1.44,1.44,0,0,1-.46-.4l-9.17-11.62a2,2,0,0,0-.74-.63,3.08,3.08,0,0,0-1.22-.18Zm0-1.54h5a11.79,11.79,0,0,0,3.41-.46,7.34,7.34,0,0,0,2.55-1.31,5.64,5.64,0,0,0,1.59-2,6.4,6.4,0,0,0,.55-2.69,5.26,5.26,0,0,0-2-4.53,9.73,9.73,0,0,0-5.83-1.48h-5.24Z"/><path class="cls-1" d="M221.12,60.06h-1.6a.7.7,0,0,1-.47-.15,1,1,0,0,1-.28-.39L215.4,51.2H201.33L198,59.52a.87.87,0,0,1-.28.38.75.75,0,0,1-.49.16h-1.58l11.72-28.64h2.06ZM202,49.66h12.83l-5.85-14.47q-.14-.34-.28-.78t-.28-.92q-.14.49-.28.92t-.28.8Z"/><path class="cls-1" d="M224,31.42h1.64a.7.7,0,0,1,.47.15,1,1,0,0,1,.28.39l9.76,23.76a12.69,12.69,0,0,1,.63,2,11.08,11.08,0,0,1,.59-2L247.13,32a1.08,1.08,0,0,1,.29-.38.71.71,0,0,1,.48-.16h1.62L237.7,60.06h-1.84Z"/><path class="cls-1" d="M261.16,60.06h-2.09V31.42h2.09Z"/><path class="cls-1" d="M298.79,45.73a17,17,0,0,1-1,6A12.89,12.89,0,0,1,295,56.22a12.1,12.1,0,0,1-4.31,2.85,15,15,0,0,1-5.57,1H274.68V31.42h10.44a15,15,0,0,1,5.57,1A12.12,12.12,0,0,1,295,35.27a12.91,12.91,0,0,1,2.79,4.51A16.9,16.9,0,0,1,298.79,45.73Zm-2.15,0a16,16,0,0,0-.83-5.34,11.23,11.23,0,0,0-2.34-4A9.94,9.94,0,0,0,289.84,34a12.6,12.6,0,0,0-4.72-.85h-8.36V58.38h8.36a12.6,12.6,0,0,0,4.72-.85,9.94,9.94,0,0,0,3.63-2.47,11.23,11.23,0,0,0,2.34-4A16.06,16.06,0,0,0,296.64,45.73Z"/><path class="cls-1" d="M326.86,31.42v1.72H311.79V44.72h12.55V46.4H311.79V58.34h15.08v1.72H309.7V31.42Z"/><path class="cls-1" d="M78.39,84l.17.45q.08-.24.18-.45t.21-.44l4.12-7.49a.49.49,0,0,1,.23-.24,1.06,1.06,0,0,1,.34,0h1.22V88H83.41V79c0-.12,0-.25,0-.38s0-.27,0-.42l-4.17,7.61a.66.66,0,0,1-.6.38h-.24a.65.65,0,0,1-.59-.38l-4.27-7.64c0,.15,0,.29,0,.43s0,.27,0,.39V88H72.19V75.81H73.4a1.06,1.06,0,0,1,.34,0,.49.49,0,0,1,.23.24l4.21,7.5A3.19,3.19,0,0,1,78.39,84Z"/><path class="cls-1" d="M93.49,79.24a3.84,3.84,0,0,1,1.43.26,3.2,3.2,0,0,1,1.13.75,3.41,3.41,0,0,1,.74,1.21,4.66,4.66,0,0,1,.27,1.64,1,1,0,0,1-.08.48.32.32,0,0,1-.29.12H91a4.75,4.75,0,0,0,.22,1.42,2.9,2.9,0,0,0,.56,1,2.24,2.24,0,0,0,.85.6,2.92,2.92,0,0,0,1.1.2,3.23,3.23,0,0,0,1-.13,4.68,4.68,0,0,0,.71-.28,5.46,5.46,0,0,0,.5-.28.66.66,0,0,1,.34-.13.33.33,0,0,1,.29.14l.42.55a2.87,2.87,0,0,1-.67.59,4.15,4.15,0,0,1-.84.41,5.31,5.31,0,0,1-.92.24,5.68,5.68,0,0,1-.94.08,4.38,4.38,0,0,1-1.64-.3,3.61,3.61,0,0,1-1.3-.88,4.06,4.06,0,0,1-.85-1.44,5.86,5.86,0,0,1-.31-2,5,5,0,0,1,.28-1.68,4,4,0,0,1,.79-1.36,3.65,3.65,0,0,1,1.27-.9A4.15,4.15,0,0,1,93.49,79.24Zm0,1.11A2.32,2.32,0,0,0,91.8,81,3,3,0,0,0,91,82.75H95.7a3.07,3.07,0,0,0-.14-1,2.15,2.15,0,0,0-.42-.76,1.91,1.91,0,0,0-.68-.49A2.31,2.31,0,0,0,93.53,80.36Z"/><path class="cls-1" d="M107.55,88a.39.39,0,0,1-.41-.31l-.14-1a4.54,4.54,0,0,1-1.26,1.07,3.23,3.23,0,0,1-1.63.4,3.11,3.11,0,0,1-1.34-.28,2.79,2.79,0,0,1-1-.84,4,4,0,0,1-.65-1.38,7.09,7.09,0,0,1-.23-1.89,5.94,5.94,0,0,1,.26-1.77,4.31,4.31,0,0,1,.74-1.42,3.37,3.37,0,0,1,2.73-1.29,3.11,3.11,0,0,1,1.35.27,3.24,3.24,0,0,1,1,.75V75.47h1.51V88Zm-2.93-1.1a2.43,2.43,0,0,0,1.3-.34,3.74,3.74,0,0,0,1-1V81.42a2.39,2.39,0,0,0-.91-.79,2.63,2.63,0,0,0-1.1-.23,2.18,2.18,0,0,0-1.85.86,4,4,0,0,0-.65,2.45,6.24,6.24,0,0,0,.14,1.44,2.77,2.77,0,0,0,.43,1,1.67,1.67,0,0,0,.69.56A2.31,2.31,0,0,0,104.62,86.88Z"/><path class="cls-1" d="M115.51,76.68a1,1,0,0,1-.09.41,1.17,1.17,0,0,1-.24.34,1.11,1.11,0,0,1-.34.23,1,1,0,0,1-.42.09,1,1,0,0,1-.41-.09,1.12,1.12,0,0,1-.34-.23,1.11,1.11,0,0,1-.23-.34,1,1,0,0,1-.09-.41,1.07,1.07,0,0,1,.09-.42,1.08,1.08,0,0,1,.23-.35,1.12,1.12,0,0,1,.34-.23,1,1,0,0,1,.41-.09,1,1,0,0,1,.42.09,1.11,1.11,0,0,1,.34.23,1.15,1.15,0,0,1,.24.35A1,1,0,0,1,115.51,76.68Zm-.34,2.7V88h-1.51V79.38Z"/><path class="cls-1" d="M126.21,80.91a.68.68,0,0,1-.14.14.32.32,0,0,1-.2.05.48.48,0,0,1-.28-.11l-.38-.23a3.17,3.17,0,0,0-.56-.23,3,3,0,0,0-1.92.12,2.16,2.16,0,0,0-.81.65,3,3,0,0,0-.49,1,5.11,5.11,0,0,0-.17,1.35,4.94,4.94,0,0,0,.18,1.39,3,3,0,0,0,.5,1,2.14,2.14,0,0,0,.79.63,2.43,2.43,0,0,0,1,.22,2.65,2.65,0,0,0,.91-.13,2.77,2.77,0,0,0,.59-.29,4.43,4.43,0,0,0,.39-.29.47.47,0,0,1,.31-.13.32.32,0,0,1,.29.14l.42.55a3.27,3.27,0,0,1-1.4,1,5,5,0,0,1-1.78.32,3.75,3.75,0,0,1-1.5-.3,3.41,3.41,0,0,1-1.2-.86,4.09,4.09,0,0,1-.8-1.39,5.58,5.58,0,0,1-.29-1.88A5.66,5.66,0,0,1,120,81.9a4,4,0,0,1,.78-1.41,3.54,3.54,0,0,1,1.27-.92,4.28,4.28,0,0,1,1.73-.33,4.09,4.09,0,0,1,1.6.29,3.83,3.83,0,0,1,1.23.83Z"/><path class="cls-1" d="M132.8,76.68a1,1,0,0,1-.09.41,1.19,1.19,0,0,1-.24.34,1.1,1.1,0,0,1-.34.23,1,1,0,0,1-.42.09,1,1,0,0,1-.41-.09,1.13,1.13,0,0,1-.57-.57,1,1,0,0,1-.09-.41,1.06,1.06,0,0,1,.09-.42,1.09,1.09,0,0,1,.23-.35,1.11,1.11,0,0,1,.34-.23,1,1,0,0,1,.41-.09,1,1,0,0,1,.42.09,1.1,1.1,0,0,1,.34.23,1.16,1.16,0,0,1,.24.35A1,1,0,0,1,132.8,76.68Zm-.34,2.7V88h-1.51V79.38Z"/><path class="cls-1" d="M137.62,88V79.38h.9a.39.39,0,0,1,.41.31l.12.93a4.84,4.84,0,0,1,1.25-1,3.26,3.26,0,0,1,1.6-.38,3.11,3.11,0,0,1,1.24.23,2.41,2.41,0,0,1,.9.66,2.93,2.93,0,0,1,.55,1,4.49,4.49,0,0,1,.19,1.33V88h-1.51V82.51a2.32,2.32,0,0,0-.45-1.52,1.67,1.67,0,0,0-1.36-.54,2.54,2.54,0,0,0-1.25.32,4.13,4.13,0,0,0-1.07.88V88Z"/><path class="cls-1" d="M155.89,88h-.67a.8.8,0,0,1-.36-.07.37.37,0,0,1-.18-.29l-.17-.8q-.34.31-.66.55a3.84,3.84,0,0,1-.68.41,3.52,3.52,0,0,1-.76.25,4.34,4.34,0,0,1-.9.09,3.06,3.06,0,0,1-.94-.14,2.13,2.13,0,0,1-.76-.42,2,2,0,0,1-.51-.71,2.49,2.49,0,0,1-.19-1,1.9,1.9,0,0,1,.28-1,2.46,2.46,0,0,1,.91-.84,5.87,5.87,0,0,1,1.64-.6,11.12,11.12,0,0,1,2.47-.23V82.5A2.34,2.34,0,0,0,154,81a1.56,1.56,0,0,0-1.27-.52,2.7,2.7,0,0,0-.93.14,3.53,3.53,0,0,0-.65.31l-.48.31a.69.69,0,0,1-.4.14.45.45,0,0,1-.27-.08.61.61,0,0,1-.18-.2l-.27-.48a4.92,4.92,0,0,1,1.54-1,4.76,4.76,0,0,1,1.83-.34,3.26,3.26,0,0,1,1.28.24,2.63,2.63,0,0,1,.94.66,2.81,2.81,0,0,1,.58,1,4.28,4.28,0,0,1,.2,1.33ZM152,87.06a3.09,3.09,0,0,0,.73-.08,2.87,2.87,0,0,0,.62-.23,3.31,3.31,0,0,0,.56-.36,4.85,4.85,0,0,0,.52-.48V84.13a10.15,10.15,0,0,0-1.78.13,5,5,0,0,0-1.19.35,1.66,1.66,0,0,0-.67.5,1.09,1.09,0,0,0-.21.65,1.44,1.44,0,0,0,.11.59,1.11,1.11,0,0,0,.3.41,1.16,1.16,0,0,0,.44.23A2,2,0,0,0,152,87.06Z"/><path class="cls-1" d="M168.51,82.91V88h-1.64V75.81h3.44a7.52,7.52,0,0,1,2,.23,3.82,3.82,0,0,1,1.39.68,2.7,2.7,0,0,1,.81,1.07,3.57,3.57,0,0,1,.26,1.4,3.51,3.51,0,0,1-.2,1.21,3.19,3.19,0,0,1-.59,1,3.53,3.53,0,0,1-.94.76,4.65,4.65,0,0,1-1.26.48,1.74,1.74,0,0,1,.54.52L175.87,88h-1.46a.72.72,0,0,1-.66-.35l-3.16-4.35a.93.93,0,0,0-.31-.29,1.14,1.14,0,0,0-.51-.09Zm0-1.2h1.73a4.2,4.2,0,0,0,1.27-.17,2.59,2.59,0,0,0,.92-.49,2,2,0,0,0,.56-.76,2.48,2.48,0,0,0,.19-1,1.94,1.94,0,0,0-.72-1.64,3.47,3.47,0,0,0-2.14-.55h-1.8Z"/><path class="cls-1" d="M183.32,79.24a3.84,3.84,0,0,1,1.43.26,3.2,3.2,0,0,1,1.13.75,3.41,3.41,0,0,1,.74,1.21,4.66,4.66,0,0,1,.27,1.64,1,1,0,0,1-.08.48.32.32,0,0,1-.29.12h-5.73a4.75,4.75,0,0,0,.22,1.42,2.91,2.91,0,0,0,.56,1,2.25,2.25,0,0,0,.85.6,2.92,2.92,0,0,0,1.1.2,3.23,3.23,0,0,0,1-.13,4.73,4.73,0,0,0,.71-.28,5.53,5.53,0,0,0,.5-.28.66.66,0,0,1,.34-.13.33.33,0,0,1,.29.14l.42.55a2.87,2.87,0,0,1-.67.59,4.15,4.15,0,0,1-.84.41,5.32,5.32,0,0,1-.92.24,5.68,5.68,0,0,1-.94.08,4.38,4.38,0,0,1-1.64-.3,3.61,3.61,0,0,1-1.3-.88,4.05,4.05,0,0,1-.85-1.44,5.85,5.85,0,0,1-.31-2,5,5,0,0,1,.28-1.68,4,4,0,0,1,.79-1.36,3.66,3.66,0,0,1,1.27-.9A4.16,4.16,0,0,1,183.32,79.24Zm0,1.11a2.32,2.32,0,0,0-1.73.63,3,3,0,0,0-.78,1.75h4.68a3.07,3.07,0,0,0-.14-1A2.15,2.15,0,0,0,185,81a1.91,1.91,0,0,0-.68-.49A2.31,2.31,0,0,0,183.35,80.36Z"/><path class="cls-1" d="M191.31,90.9V79.38h.9a.39.39,0,0,1,.41.31l.13,1A4.6,4.6,0,0,1,194,79.64a3.22,3.22,0,0,1,1.64-.41,3.11,3.11,0,0,1,1.34.28,2.77,2.77,0,0,1,1,.84,4,4,0,0,1,.65,1.38,7.09,7.09,0,0,1,.23,1.89,6,6,0,0,1-.26,1.77,4.31,4.31,0,0,1-.73,1.42,3.41,3.41,0,0,1-1.17.94,3.46,3.46,0,0,1-1.56.34,3.21,3.21,0,0,1-1.36-.26,3.07,3.07,0,0,1-1-.75V90.9Zm3.83-10.45a2.44,2.44,0,0,0-1.3.34,3.74,3.74,0,0,0-1,1v4.16a2.44,2.44,0,0,0,.91.79,2.62,2.62,0,0,0,1.11.23,2.17,2.17,0,0,0,1.84-.86,4,4,0,0,0,.65-2.45,6.11,6.11,0,0,0-.15-1.44,2.83,2.83,0,0,0-.43-1,1.67,1.67,0,0,0-.69-.56A2.29,2.29,0,0,0,195.15,80.45Z"/><path class="cls-1" d="M203.19,88V79.38h.87a.48.48,0,0,1,.34.09.58.58,0,0,1,.13.32l.1,1.34a3.94,3.94,0,0,1,1.09-1.41,2.57,2.57,0,0,1,2.17-.42,2.25,2.25,0,0,1,.54.23l-.2,1.13a.26.26,0,0,1-.26.21,1.32,1.32,0,0,1-.37-.08,2.3,2.3,0,0,0-.69-.08,2,2,0,0,0-1.32.46,3.45,3.45,0,0,0-.89,1.33V88Z"/><path class="cls-1" d="M216,79.24a4.42,4.42,0,0,1,1.7.31,3.59,3.59,0,0,1,1.29.89,4,4,0,0,1,.82,1.4,6,6,0,0,1,0,3.67,4,4,0,0,1-.82,1.39,3.55,3.55,0,0,1-1.29.89,4.83,4.83,0,0,1-3.41,0,3.59,3.59,0,0,1-1.3-.89,4,4,0,0,1-.82-1.39,6,6,0,0,1,0-3.67,4,4,0,0,1,.82-1.4,3.63,3.63,0,0,1,1.3-.89A4.42,4.42,0,0,1,216,79.24Zm0,7.68a2.21,2.21,0,0,0,1.9-.85,4.85,4.85,0,0,0,0-4.78,2.2,2.2,0,0,0-1.9-.86,2.64,2.64,0,0,0-1.12.22,2.1,2.1,0,0,0-.79.64,2.84,2.84,0,0,0-.48,1,6.06,6.06,0,0,0,0,2.74,2.79,2.79,0,0,0,.48,1,2.11,2.11,0,0,0,.79.63A2.64,2.64,0,0,0,216,86.93Z"/><path class="cls-1" d="M230.55,88a.39.39,0,0,1-.41-.31l-.14-1a4.52,4.52,0,0,1-1.26,1.07,3.23,3.23,0,0,1-1.63.4,3.11,3.11,0,0,1-1.34-.28,2.79,2.79,0,0,1-1-.84,4,4,0,0,1-.65-1.38,7.09,7.09,0,0,1-.23-1.89,5.94,5.94,0,0,1,.25-1.77,4.32,4.32,0,0,1,.74-1.42,3.37,3.37,0,0,1,2.73-1.29,3.11,3.11,0,0,1,1.35.27,3.23,3.23,0,0,1,1,.75V75.47h1.51V88Zm-2.93-1.1a2.43,2.43,0,0,0,1.3-.34,3.73,3.73,0,0,0,1-1V81.42a2.39,2.39,0,0,0-.91-.79,2.63,2.63,0,0,0-1.1-.23,2.18,2.18,0,0,0-1.85.86,4,4,0,0,0-.65,2.45,6.21,6.21,0,0,0,.14,1.44,2.76,2.76,0,0,0,.42,1,1.67,1.67,0,0,0,.69.56A2.31,2.31,0,0,0,227.62,86.88Z"/><path class="cls-1" d="M237.8,79.38v5.49a2.28,2.28,0,0,0,.45,1.51,1.68,1.68,0,0,0,1.36.54,2.6,2.6,0,0,0,1.25-.31,3.88,3.88,0,0,0,1.08-.88V79.38h1.51V88h-.9a.39.39,0,0,1-.41-.31l-.12-.93a4.74,4.74,0,0,1-1.26,1,3.3,3.3,0,0,1-1.6.38,3.11,3.11,0,0,1-1.24-.23,2.47,2.47,0,0,1-.91-.66,2.79,2.79,0,0,1-.55-1,4.58,4.58,0,0,1-.18-1.33V79.38Z"/><path class="cls-1" d="M251,88.13a2.08,2.08,0,0,1-1.57-.57,2.27,2.27,0,0,1-.55-1.64V80.65h-1a.34.34,0,0,1-.23-.08.31.31,0,0,1-.09-.25v-.6l1.41-.18.35-2.66a.32.32,0,0,1,.11-.21.35.35,0,0,1,.24-.08h.77v3h2.46v1.1h-2.46v5.17a1.1,1.1,0,0,0,.26.81.92.92,0,0,0,.68.26,1.21,1.21,0,0,0,.41-.06,1.76,1.76,0,0,0,.3-.14l.22-.14a.28.28,0,0,1,.16-.06.26.26,0,0,1,.21.14l.44.72a2.81,2.81,0,0,1-.94.57A3.2,3.2,0,0,1,251,88.13Z"/><path class="cls-1" d="M259.3,76.68a1,1,0,0,1-.09.41,1.19,1.19,0,0,1-.24.34,1.1,1.1,0,0,1-.34.23,1,1,0,0,1-.42.09,1,1,0,0,1-.41-.09,1.13,1.13,0,0,1-.57-.57,1,1,0,0,1-.09-.41,1.06,1.06,0,0,1,.09-.42,1.09,1.09,0,0,1,.23-.35,1.11,1.11,0,0,1,.34-.23,1,1,0,0,1,.41-.09,1,1,0,0,1,.42.09,1.1,1.1,0,0,1,.34.23,1.16,1.16,0,0,1,.24.35A1,1,0,0,1,259.3,76.68Zm-.34,2.7V88h-1.51V79.38Z"/><path class="cls-1" d="M263,79.38h1.24a.47.47,0,0,1,.3.09.53.53,0,0,1,.17.22l2.18,5.54a4.21,4.21,0,0,1,.19.61c0,.2.09.41.13.6l.14-.6a5.12,5.12,0,0,1,.2-.61l2.21-5.54a.5.5,0,0,1,.17-.23.45.45,0,0,1,.28-.09h1.18L267.92,88h-1.37Z"/><path class="cls-1" d="M281.65,88H281a.79.79,0,0,1-.36-.07.37.37,0,0,1-.18-.29l-.17-.8q-.34.31-.66.55a3.84,3.84,0,0,1-.68.41,3.52,3.52,0,0,1-.76.25,4.34,4.34,0,0,1-.9.09,3.06,3.06,0,0,1-.94-.14,2.14,2.14,0,0,1-.76-.42,2,2,0,0,1-.51-.71,2.5,2.5,0,0,1-.19-1,1.91,1.91,0,0,1,.28-1,2.47,2.47,0,0,1,.91-.84,5.88,5.88,0,0,1,1.64-.6,11.12,11.12,0,0,1,2.47-.23V82.5a2.34,2.34,0,0,0-.43-1.53,1.56,1.56,0,0,0-1.27-.52,2.7,2.7,0,0,0-.93.14,3.53,3.53,0,0,0-.65.31l-.48.31a.69.69,0,0,1-.4.14.45.45,0,0,1-.27-.08.62.62,0,0,1-.18-.2l-.27-.48a4.93,4.93,0,0,1,1.54-1,4.76,4.76,0,0,1,1.83-.34,3.26,3.26,0,0,1,1.28.24,2.63,2.63,0,0,1,.94.66,2.81,2.81,0,0,1,.58,1,4.28,4.28,0,0,1,.2,1.33Zm-3.93-.93a3.08,3.08,0,0,0,.73-.08,2.87,2.87,0,0,0,.62-.23,3.31,3.31,0,0,0,.56-.36,4.8,4.8,0,0,0,.52-.48V84.13a10.15,10.15,0,0,0-1.78.13,5,5,0,0,0-1.19.35,1.66,1.66,0,0,0-.67.5,1.09,1.09,0,0,0-.21.65,1.45,1.45,0,0,0,.11.59,1.12,1.12,0,0,0,.3.41,1.17,1.17,0,0,0,.44.23A2,2,0,0,0,277.72,87.06Z"/><path class="cls-1" d="M25.62,108.21a1.63,1.63,0,0,1-1.3-.65c-.25-.33-2.41-3.31-1.88-6.26A5,5,0,0,1,24.74,98c.33-.21.81-.5,1.4-.85C32,93.63,49.84,83,48.44,66.65v-.14c0-.64-.25-15.78-15.93-24.3l-.19-.12a4.4,4.4,0,0,1-.64-6.5c1.69-2.15,3.72-6.23,2.71-8.94-2-1.59-12.44-9.79-15.76-13.31C16.5,11.1,13.05,6,12.8,1.73a1.63,1.63,0,0,1,3.25-.19c.19,3.16,3.06,7.58,4.94,9.58,3.44,3.65,15.6,13.14,15.72,13.23l.3.23.17.34c2.11,4.35-.85,10-2.94,12.68a1.57,1.57,0,0,0-.44,1.11,1.38,1.38,0,0,0,.4.72c16.89,9.27,17.46,25.6,17.48,27,1.52,18.39-17.6,29.74-23.89,33.48-.55.33-1,.59-1.3.79a1.69,1.69,0,0,0-.85,1.17c-.22,1.24.76,3,1.27,3.73a1.63,1.63,0,0,1-1.3,2.61Z"/><path class="cls-1" d="M3.32,66.8l-.27,0A1.63,1.63,0,0,1,1.71,64.9c.29-1.7.61-3.37.92-5C4.52,50,6.31,40.73.1,23.82a1.63,1.63,0,0,1,3.06-1.12C9.68,40.46,7.81,50.21,5.83,60.53c-.31,1.6-.62,3.24-.9,4.91A1.63,1.63,0,0,1,3.32,66.8Z"/><path class="cls-1" d="M39.53,56.81a3.39,3.39,0,0,1-2.38,3.36,3.36,3.36,0,0,0,3.52-1.39,3.42,3.42,0,0,0-.08-4A3.35,3.35,0,0,0,37,53.54,3.4,3.4,0,0,1,39.53,56.81Z"/><path class="cls-1" d="M40.14,80.18a3.39,3.39,0,0,0,.76-4.06c-.09-.14-.14-.24-.19-.35a3,3,0,0,0-2.4-1.5,3.47,3.47,0,0,1-2.38,6.19A3.4,3.4,0,0,0,40.14,80.18Z"/><path class="cls-1" d="M41.91,70.68a3.12,3.12,0,0,0,3.22-1.51,3.19,3.19,0,0,0-.34-3.74,3,3,0,0,0-2.9-1A6.66,6.66,0,0,1,41.91,70.68Z"/><path class="cls-1" d="M27.07,55.86h0a3.41,3.41,0,0,0,0-6.82h0a3.41,3.41,0,1,0,0,6.82Z"/><path class="cls-1" d="M12.18,70.58a6.62,6.62,0,0,1,.63-6.25,3.1,3.1,0,0,0-3.2.91,3.19,3.19,0,0,0-.45,3.68A3.13,3.13,0,0,0,12.18,70.58Z"/><path class="cls-1" d="M14.9,78.07a3.37,3.37,0,0,1,1.84-3.7,3.4,3.4,0,0,0-3.32,1.94,3.47,3.47,0,0,0,.89,4.13,3.37,3.37,0,0,0,3.64.45A3.4,3.4,0,0,1,14.9,78.07Z"/><path class="cls-1" d="M16.79,60.26A3.45,3.45,0,0,1,18,53.74a3.23,3.23,0,0,0-3.59.42,3.44,3.44,0,0,0,2.43,6.1Z"/><path class="cls-1" d="M27.12,85.46h0a3.41,3.41,0,1,1,0-6.82h0a3.41,3.41,0,0,1,0,6.82m0,.5a3.91,3.91,0,0,0,.05-7.82h0a3.91,3.91,0,1,0,0,7.82h0Z"/></g></g></svg>